<svg width="14" height="18" viewBox="0 0 14 18" fill="none" xmlns="http://www.w3.org/2000/svg">
<path fill-rule="evenodd" clip-rule="evenodd" d="M0.283256 14.4389C0.3177 14.8604 0.391623 15.248 0.577092 15.612C0.864712 16.1765 1.32365 16.6354 1.88814 16.923C2.25214 17.1085 2.63967 17.1824 3.06124 17.2169C3.46713 17.25 3.9654 17.25 4.56912 17.25H10.629C11.0244 17.25 11.3655 17.25 11.6464 17.2271C11.9429 17.2028 12.2378 17.1494 12.5216 17.0048C12.945 16.789 13.2892 16.4448 13.5049 16.0215C13.6495 15.7377 13.703 15.4428 13.7272 15.1463C13.7478 14.8944 13.7501 14.5944 13.7501 14.25C13.7501 10.7904 13.7501 7.33072 13.7501 3.87108C13.7501 3.47572 13.7501 3.13466 13.7272 2.85373C13.703 2.55722 13.6495 2.26231 13.5049 1.97852C13.2892 1.55516 12.945 1.21095 12.5216 0.995237C12.2378 0.850642 11.9429 0.797155 11.6464 0.772929C11.3655 0.749977 11.0244 0.749988 10.6291 0.750001H4.56914C3.96543 0.749992 3.46713 0.749985 3.06124 0.783147C2.63967 0.817591 2.25214 0.891514 1.88814 1.07698C1.32365 1.3646 0.864712 1.82354 0.577092 2.38803C0.391623 2.75203 0.3177 3.13956 0.283256 3.56113C0.250094 3.96703 0.250101 4.46529 0.25011 5.06901V12.931C0.250103 13.4342 0.2423 13.9376 0.283256 14.4389ZM12.2322 15.0241C12.2155 15.2279 12.1873 15.3034 12.1684 15.3405C12.0965 15.4816 11.9817 15.5964 11.8406 15.6683C11.8035 15.6871 11.728 15.7154 11.5242 15.7321C11.3117 15.7494 11.0325 15.75 10.6001 15.75H4.60011C3.95768 15.75 3.52096 15.7494 3.18339 15.7218C2.85458 15.695 2.68642 15.6463 2.56913 15.5865C2.28688 15.4427 2.05741 15.2132 1.9136 14.931C1.77922 14.6672 1.71277 14.4389 1.7627 14.0547C1.8584 13.3186 2.48786 12.75 3.25011 12.75H12.2501C12.2501 13.5038 12.2936 14.2722 12.2322 15.0241Z" fill="#FF7F3E"/>
</svg>
