<svg width="22" height="22" viewBox="0 0 22 22" fill="none" xmlns="http://www.w3.org/2000/svg">
<path fill-rule="evenodd" clip-rule="evenodd" d="M14.1341 1.1543C12.3281 -0.384768 9.67186 -0.384768 7.86585 1.1543C7.41226 1.54085 6.84829 1.77446 6.25422 1.82186C3.88889 2.01062 2.01062 3.88889 1.82186 6.25422C1.77446 6.84829 1.54085 7.41226 1.1543 7.86585C-0.384768 9.67186 -0.384768 12.3281 1.1543 14.1341C1.54085 14.5877 1.77446 15.1517 1.82186 15.7458C2.01062 18.1111 3.88889 19.9894 6.25422 20.1781C6.84829 20.2255 7.41226 20.4591 7.86585 20.8457C9.67186 22.3848 12.3281 22.3848 14.1341 20.8457C14.5877 20.4591 15.1517 20.2255 15.7458 20.1781C18.1111 19.9894 19.9894 18.1111 20.1781 15.7458C20.2255 15.1517 20.4591 14.5877 20.8457 14.1341C22.3848 12.3281 22.3848 9.67186 20.8457 7.86585C20.4591 7.41226 20.2255 6.84829 20.1781 6.25422C19.9894 3.88889 18.1111 2.01062 15.7458 1.82186C15.1517 1.77446 14.5877 1.54085 14.1341 1.1543ZM15.2071 9.20711C15.5976 8.81658 15.5976 8.18342 15.2071 7.79289C14.8166 7.40237 14.1834 7.40237 13.7929 7.79289L10 11.5858L8.70711 10.2929C8.31658 9.90237 7.68342 9.90237 7.29289 10.2929C6.90237 10.6834 6.90237 11.3166 7.29289 11.7071L9.29289 13.7071C9.68342 14.0976 10.3166 14.0976 10.7071 13.7071L15.2071 9.20711Z" fill="#6852D6"/>
</svg>
