<svg width="16" height="16" viewBox="0 0 16 16" fill="none" xmlns="http://www.w3.org/2000/svg">
<path fill-rule="evenodd" clip-rule="evenodd" d="M12.3789 0.500001H3.62109C3.22574 0.499988 2.88465 0.499977 2.60373 0.522929C2.30722 0.547155 2.01231 0.600642 1.72852 0.745237C1.30516 0.960952 0.960952 1.30516 0.745237 1.72852C0.600642 2.01231 0.547155 2.30722 0.522929 2.60373C0.499977 2.88465 0.499988 3.22572 0.500001 3.62106V12.3789C0.499988 12.7743 0.499977 13.1154 0.522929 13.3963C0.547155 13.6928 0.600642 13.9877 0.745237 14.2715C0.960952 14.6948 1.30516 15.0391 1.72852 15.2548C2.01231 15.3994 2.30722 15.4528 2.60373 15.4771C2.88466 15.5 3.22572 15.5 3.62108 15.5H12.3789C12.7743 15.5 13.1153 15.5 13.3963 15.4771C13.6928 15.4528 13.9877 15.3994 14.2715 15.2548C14.6948 15.0391 15.0391 14.6948 15.2548 14.2715C15.3994 13.9877 15.4528 13.6928 15.4771 13.3963C15.5 13.1153 15.5 12.7743 15.5 12.3789V3.62108C15.5 3.22572 15.5 2.88466 15.4771 2.60373C15.4528 2.30722 15.3994 2.01231 15.2548 1.72852C15.0391 1.30516 14.6948 0.960952 14.2715 0.745237C13.9877 0.600642 13.6928 0.547155 13.3963 0.522929C13.1154 0.499977 12.7743 0.499988 12.3789 0.500001ZM7.03033 4.78033C7.32322 4.48744 7.32322 4.01256 7.03033 3.71967C6.73744 3.42678 6.26256 3.42678 5.96967 3.71967L3.71967 5.96967C3.42678 6.26256 3.42678 6.73744 3.71967 7.03033L5.96967 9.28033C6.26256 9.57322 6.73744 9.57322 7.03033 9.28033C7.32322 8.98744 7.32322 8.51256 7.03033 8.21967L5.31066 6.5L7.03033 4.78033ZM10.0303 6.71967C9.73744 6.42678 9.26256 6.42678 8.96967 6.71967C8.67678 7.01256 8.67678 7.48744 8.96967 7.78033L10.6893 9.5L8.96967 11.2197C8.67678 11.5126 8.67678 11.9874 8.96967 12.2803C9.26256 12.5732 9.73744 12.5732 10.0303 12.2803L12.2803 10.0303C12.5732 9.73744 12.5732 9.26256 12.2803 8.96967L10.0303 6.71967Z" fill="#FF7F3E"/>
</svg>
