<svg width="21" height="20" viewBox="0 0 21 20" fill="none" xmlns="http://www.w3.org/2000/svg">
<path fill-rule="evenodd" clip-rule="evenodd" d="M16.5051 8.04846e-07H4.82796C4.30083 -1.63023e-05 3.84604 -3.10596e-05 3.47148 0.030572C3.07613 0.062873 2.68291 0.134189 2.30453 0.326983C1.74005 0.614603 1.28111 1.07354 0.993487 1.63803C0.800693 2.01641 0.729377 2.40963 0.697076 2.80497C0.666473 3.17954 0.666488 3.63429 0.666505 4.16142V15.8385C0.666488 16.3657 0.666473 16.8205 0.697076 17.195C0.729377 17.5904 0.800693 17.9836 0.993487 18.362C1.28111 18.9265 1.74005 19.3854 2.30453 19.673C2.68291 19.8658 3.07613 19.9371 3.47148 19.9694C3.84605 20 4.3008 20 4.82794 20H16.5051C17.0322 20 17.487 20 17.8615 19.9694C18.2569 19.9371 18.6501 19.8658 19.0285 19.673C19.593 19.3854 20.0519 18.9265 20.3395 18.362C20.5323 17.9836 20.6036 17.5904 20.6359 17.195C20.6665 16.8205 20.6665 16.3657 20.6665 15.8386V4.16144C20.6665 3.6343 20.6665 3.17954 20.6359 2.80497C20.6036 2.40963 20.5323 2.01641 20.3395 1.63803C20.0519 1.07354 19.593 0.614603 19.0285 0.326983C18.6501 0.134189 18.2569 0.062873 17.8615 0.030572C17.487 -3.10596e-05 17.0322 -1.63023e-05 16.5051 8.04846e-07ZM9.37361 5.70711C9.76414 5.31658 9.76414 4.68342 9.37361 4.29289C8.98309 3.90237 8.34992 3.90237 7.9594 4.29289L4.9594 7.29289C4.56887 7.68342 4.56887 8.31658 4.9594 8.70711L7.9594 11.7071C8.34992 12.0976 8.98309 12.0976 9.37361 11.7071C9.76414 11.3166 9.76414 10.6834 9.37361 10.2929L7.08072 8L9.37361 5.70711ZM13.3736 8.29289C12.9831 7.90237 12.3499 7.90237 11.9594 8.29289C11.5689 8.68342 11.5689 9.31658 11.9594 9.70711L14.2523 12L11.9594 14.2929C11.5689 14.6834 11.5689 15.3166 11.9594 15.7071C12.3499 16.0976 12.9831 16.0976 13.3736 15.7071L16.3736 12.7071C16.7641 12.3166 16.7641 11.6834 16.3736 11.2929L13.3736 8.29289Z" fill="#6852D6"/>
</svg>
