<svg width="17" height="18" viewBox="0 0 17 18" fill="none" xmlns="http://www.w3.org/2000/svg">
<path d="M5.06852 5.40202C2.4039 6.01372 0.416504 8.39977 0.416504 11.25C0.416504 14.5637 3.1028 17.25 6.4165 17.25C9.26674 17.25 11.6528 15.2626 12.2645 12.598C12.364 12.1647 12.4165 11.7135 12.4165 11.25C12.4165 7.93629 9.73021 5.25 6.4165 5.25C5.95303 5.25 5.50182 5.30255 5.06852 5.40202Z" fill="#FF7F3E"/>
<path d="M5.69979 3.7838C5.93568 3.76144 6.17476 3.75 6.4165 3.75C10.5586 3.75 13.9165 7.10786 13.9165 11.25C13.9165 11.4917 13.9051 11.7308 13.8827 11.9667C15.6947 10.9342 16.9165 8.98477 16.9165 6.75C16.9165 3.43629 14.2302 0.75 10.9165 0.75C8.68173 0.75 6.73232 1.97177 5.69979 3.7838Z" fill="#FF7F3E"/>
</svg>
