<svg width="14" height="14" viewBox="0 0 14 14" fill="none" xmlns="http://www.w3.org/2000/svg">
<path fill-rule="evenodd" clip-rule="evenodd" d="M7.00544 0.333008C3.31589 0.333008 0.333252 3.38855 0.333252 7.16867C0.333252 10.1903 2.24433 12.7481 4.8955 13.6534C5.22697 13.7214 5.34838 13.5063 5.34838 13.3253C5.34838 13.1668 5.33746 12.6237 5.33746 12.0577C3.48142 12.4652 3.09491 11.2428 3.09491 11.2428C2.79664 10.4506 2.35468 10.247 2.35468 10.247C1.7472 9.82825 2.39893 9.82825 2.39893 9.82825C3.07279 9.87352 3.42638 10.5299 3.42638 10.5299C4.0228 11.571 4.98387 11.2769 5.37051 11.0957C5.42568 10.6544 5.60255 10.3488 5.79034 10.1791C4.31001 10.0206 2.75252 9.43214 2.75252 6.80645C2.75252 6.05951 3.01748 5.4484 3.4373 4.97313C3.37107 4.80341 3.13903 4.1016 3.50368 3.1623C3.50368 3.1623 4.06705 2.98119 5.33732 3.86397C5.88117 3.71434 6.44203 3.63822 7.00544 3.63758C7.5688 3.63758 8.1431 3.71688 8.67341 3.86397C9.94382 2.98119 10.5072 3.1623 10.5072 3.1623C10.8718 4.1016 10.6397 4.80341 10.5734 4.97313C11.0043 5.4484 11.2583 6.05951 11.2583 6.80645C11.2583 9.43214 9.70086 10.0092 8.20947 10.1791C8.45257 10.3941 8.66235 10.8014 8.66235 11.4466C8.66235 12.3632 8.65142 13.0989 8.65142 13.3252C8.65142 13.5063 8.77297 13.7214 9.1043 13.6535C11.7555 12.748 13.6666 10.1903 13.6666 7.16867C13.6775 3.38855 10.6839 0.333008 7.00544 0.333008Z" fill="#FAFAFF"/>
</svg>
