<svg width="23" height="18" viewBox="0 0 23 18" fill="none" xmlns="http://www.w3.org/2000/svg">
<path d="M11.3333 0C11.8855 0 12.3333 0.447715 12.3333 1V3C12.3333 3.55228 11.8855 4 11.3333 4C10.781 4 10.3333 3.55228 10.3333 3V1C10.3333 0.447715 10.781 0 11.3333 0Z" fill="#6852D6"/>
<path d="M3.33325 17C3.33325 16.4477 3.78097 16 4.33325 16H18.3333C18.8855 16 19.3333 16.4477 19.3333 17C19.3333 17.5523 18.8855 18 18.3333 18H4.33325C3.78097 18 3.33325 17.5523 3.33325 17Z" fill="#6852D6"/>
<path d="M3.94026 3.1928C3.54974 2.80227 2.91657 2.80227 2.52605 3.1928C2.13552 3.58332 2.13552 4.21649 2.52605 4.60701L3.94026 6.02122C4.33079 6.41175 4.96395 6.41175 5.35447 6.02122C5.745 5.6307 5.745 4.99753 5.35447 4.60701L3.94026 3.1928Z" fill="#6852D6"/>
<path d="M20.1404 3.1928C20.5309 3.58332 20.5309 4.21649 20.1404 4.60701L18.7262 6.02122C18.3356 6.41175 17.7025 6.41175 17.3119 6.02122C16.9214 5.6307 16.9214 4.99753 17.3119 4.60701L18.7262 3.1928C19.1167 2.80227 19.7498 2.80227 20.1404 3.1928Z" fill="#6852D6"/>
<path d="M4.40414 12C4.88937 8.60771 7.80678 6 11.3333 6C14.8597 6 17.7771 8.60771 18.2624 12H21.3333C21.8855 12 22.3333 12.4477 22.3333 13C22.3333 13.5523 21.8855 14 21.3333 14H1.33325C0.780967 14 0.333252 13.5523 0.333252 13C0.333252 12.4477 0.780967 12 1.33325 12H4.40414Z" fill="#6852D6"/>
</svg>
