<svg width="18" height="18" viewBox="0 0 18 18" fill="none" xmlns="http://www.w3.org/2000/svg">
<path d="M11.7083 1.5C9.84429 1.5 8.33325 3.01104 8.33325 4.875C8.33325 6.73896 9.84429 8.25 11.7083 8.25C13.5722 8.25 15.0833 6.73896 15.0833 4.875C15.0833 3.01104 13.5722 1.5 11.7083 1.5Z" fill="#FF7F3E"/>
<path d="M8.3571 1.33444C7.41866 2.22299 6.83325 3.48063 6.83325 4.875C6.83325 5.77282 7.07596 6.61395 7.49934 7.33637C7.17143 7.4426 6.82155 7.5 6.45825 7.5C4.59429 7.5 3.08325 5.98896 3.08325 4.125C3.08325 2.26104 4.59429 0.75 6.45825 0.75C7.16237 0.75 7.81613 0.965624 8.3571 1.33444Z" fill="#FF7F3E"/>
<path d="M12.6149 11.92C12.6149 12.5135 12.2224 13.0154 11.6813 13.1832L12.0292 13.167C12.4094 13.167 12.7792 13.0474 13.083 12.8253L15.2047 11.2774C15.7342 10.8913 16.4754 10.9426 16.9434 11.3979C17.4633 11.9036 17.4633 12.7228 16.9434 13.2277L15.123 14.9985C14.633 15.4752 14.0077 15.8007 13.328 15.9331L10.755 16.4337C10.2448 16.5328 9.71874 16.5208 9.21379 16.3978L6.88665 15.8323C6.60827 15.764 6.32286 15.7298 6.0357 15.7298C5.73083 15.7298 5.57839 15.7298 5.45609 15.6861C5.24425 15.6105 5.07754 15.4438 5.00192 15.232C4.95825 15.1096 4.95825 14.9572 4.95825 14.6523V12.0805C4.95825 11.8661 4.95825 11.7589 4.98578 11.6602C5.01016 11.5727 5.05024 11.4903 5.10406 11.4171C5.16481 11.3345 5.24916 11.2684 5.41786 11.1361L6.30705 10.439C6.30705 10.439 7.78062 9.74999 8.59468 9.74999C8.9319 9.74999 9.26736 9.79103 9.59492 9.87224L11.6077 10.3726C12.1996 10.5193 12.6149 11.0485 12.6149 11.6554V11.92Z" fill="#FF7F3E"/>
<path fill-rule="evenodd" clip-rule="evenodd" d="M1.9384 9.74999C1.94501 9.74999 1.95163 9.74999 1.95826 9.74999C1.96488 9.74999 1.9715 9.74999 1.97811 9.74999C2.13564 9.74998 2.28911 9.74996 2.41968 9.75887C2.56245 9.76861 2.73175 9.79147 2.90728 9.86417C3.27482 10.0164 3.56683 10.3084 3.71907 10.676C3.79178 10.8515 3.81464 11.0208 3.82438 11.1636C3.83329 11.2941 3.83327 11.4476 3.83326 11.6051C3.83326 11.6117 3.83325 11.6184 3.83325 11.625L3.83326 15.3949C3.83327 15.5524 3.83329 15.7059 3.82438 15.8364C3.81464 15.9792 3.79178 16.1485 3.71907 16.324C3.56683 16.6916 3.27482 16.9836 2.90728 17.1358C2.73175 17.2085 2.56245 17.2314 2.41967 17.2411C2.28911 17.25 2.13565 17.25 1.97811 17.25H1.93839C1.78086 17.25 1.6274 17.25 1.49683 17.2411C1.35405 17.2314 1.18476 17.2085 1.00923 17.1358C0.641687 16.9836 0.349676 16.6916 0.197435 16.324C0.124727 16.1485 0.101872 15.9792 0.0921304 15.8364C0.0832222 15.7058 0.0832375 15.5524 0.0832533 15.3948L0.0832546 11.625C0.0832546 11.6184 0.0832539 11.6117 0.0832533 11.6051C0.0832375 11.4476 0.0832222 11.2941 0.0921305 11.1636C0.101872 11.0208 0.124728 10.8515 0.197435 10.676C0.349676 10.3084 0.641688 10.0164 1.00923 9.86417C1.18476 9.79146 1.35406 9.76861 1.49683 9.75887C1.6274 9.74996 1.78087 9.74998 1.9384 9.74999Z" fill="#FF7F3E"/>
</svg>
