<svg width="14" height="14" viewBox="0 0 14 14" fill="none" xmlns="http://www.w3.org/2000/svg">
<path d="M4.3495 0.64437C3.66853 0.676498 3.20351 0.78517 2.79698 0.944915C2.37624 1.10888 2.01963 1.32892 1.66482 1.68501C1.31 2.04111 1.0915 2.39798 0.928685 2.81935C0.771117 3.22678 0.664364 3.69219 0.634284 4.37353C0.604204 5.05488 0.597548 5.27389 0.600876 7.01188C0.604204 8.74987 0.611884 8.96773 0.644908 9.65048C0.67742 10.3313 0.785709 10.7962 0.945453 11.2029C1.10968 11.6236 1.32945 11.9801 1.68568 12.335C2.0419 12.69 2.39851 12.908 2.82092 13.071C3.22796 13.2283 3.69349 13.3356 4.37471 13.3654C5.05593 13.3953 5.2752 13.4022 7.01267 13.3988C8.75015 13.3955 8.9689 13.3878 9.65153 13.3555C10.3342 13.3231 10.7966 13.214 11.2034 13.055C11.6241 12.8904 11.9809 12.671 12.3356 12.3147C12.6903 11.9583 12.9086 11.6012 13.0713 11.1796C13.229 10.7725 13.3362 10.307 13.3657 9.62629C13.3955 8.94315 13.4026 8.72504 13.3993 6.9873C13.3959 5.24957 13.3881 5.03171 13.3557 4.34921C13.3234 3.66672 13.2149 3.20323 13.0553 2.79631C12.8908 2.37558 12.6713 2.01935 12.3152 1.66415C11.9591 1.30895 11.6017 1.09071 11.1802 0.928403C10.7729 0.770834 10.3077 0.663442 9.62644 0.634002C8.94522 0.604561 8.72596 0.597009 6.98784 0.600337C5.24972 0.603665 5.03212 0.611089 4.3495 0.64437ZM4.42425 12.2141C3.80025 12.1869 3.46143 12.0833 3.23564 11.9965C2.93663 11.8813 2.72364 11.742 2.49861 11.5192C2.27359 11.2963 2.13535 11.0826 2.01861 10.7842C1.93093 10.5584 1.82533 10.22 1.79614 9.59595C1.7644 8.92152 1.75774 8.71902 1.75403 7.01034C1.75032 5.30167 1.75685 5.09942 1.78642 4.42473C1.81304 3.80124 1.91736 3.46204 2.00402 3.23638C2.11922 2.93699 2.25797 2.72438 2.48133 2.49948C2.70469 2.27458 2.91781 2.13609 3.21644 2.01935C3.44197 1.93129 3.78041 1.82658 4.40415 1.79689C5.0791 1.76489 5.28134 1.75849 6.98976 1.75477C8.69818 1.75106 8.90094 1.75746 9.57614 1.78716C10.1996 1.81429 10.539 1.91759 10.7644 2.00476C11.0635 2.11996 11.2764 2.25833 11.5013 2.48207C11.7262 2.70582 11.8648 2.91817 11.9815 3.21743C12.0697 3.44233 12.1744 3.78064 12.2039 4.40477C12.236 5.07971 12.2433 5.28208 12.2464 6.99038C12.2494 8.69867 12.2434 8.90155 12.2138 9.57598C12.1866 10.2 12.0832 10.5389 11.9962 10.765C11.881 11.0639 11.7422 11.277 11.5187 11.5018C11.2952 11.7265 11.0823 11.865 10.7836 11.9818C10.5583 12.0697 10.2195 12.1746 9.59623 12.2043C8.92129 12.2361 8.71905 12.2427 7.00999 12.2465C5.30092 12.2502 5.09932 12.2433 4.42438 12.2141M9.64167 3.57904C9.64193 3.73094 9.68722 3.87936 9.77184 4.00553C9.85645 4.13169 9.97657 4.22992 10.117 4.28781C10.2575 4.3457 10.4119 4.36063 10.5609 4.33073C10.7098 4.30083 10.8465 4.22743 10.9537 4.11982C11.0609 4.01221 11.1338 3.87522 11.1632 3.72617C11.1926 3.57713 11.1771 3.42273 11.1187 3.28249C11.0603 3.14226 10.9616 3.0225 10.8351 2.93835C10.7086 2.8542 10.56 2.80945 10.4081 2.80975C10.2045 2.81016 10.0094 2.89143 9.86562 3.03569C9.72189 3.17995 9.64133 3.37539 9.64167 3.57904ZM3.71397 7.00599C3.71756 8.82104 5.19161 10.2891 7.00627 10.2856C8.82094 10.2822 10.29 8.80824 10.2865 6.99319C10.2831 5.17815 8.80865 3.70972 6.99373 3.71331C5.17881 3.71689 3.71052 5.1912 3.71397 7.00599ZM4.86675 7.00369C4.86591 6.58175 4.99022 6.16903 5.22394 5.81774C5.45767 5.46644 5.79031 5.19234 6.17982 5.0301C6.56932 4.86786 6.99819 4.82476 7.41218 4.90626C7.82618 4.98775 8.20672 5.19019 8.50567 5.48795C8.80461 5.78572 9.00855 6.16545 9.09169 6.57912C9.17482 6.99279 9.13343 7.42183 8.97273 7.81197C8.81203 8.20212 8.53925 8.53585 8.18888 8.77096C7.83851 9.00607 7.4263 9.13201 7.00435 9.13285C6.72418 9.13344 6.44664 9.07883 6.18758 8.97214C5.92852 8.86545 5.69301 8.70877 5.49451 8.51106C5.29601 8.31334 5.1384 8.07845 5.03069 7.81982C4.92297 7.56118 4.86727 7.28386 4.86675 7.00369Z" fill="#FAFAFF"/>
</svg>
