<svg width="16" height="12" viewBox="0 0 16 12" fill="none" xmlns="http://www.w3.org/2000/svg">
<path d="M1.42243 3.45429C1.22247 3.31147 1.1225 3.24005 1.03533 3.23078C0.904983 3.21692 0.774344 3.28415 0.709861 3.39828C0.666743 3.47459 0.666745 3.5961 0.666748 3.83912V8.16087C0.66674 8.69751 0.666733 9.14042 0.696211 9.50122C0.726828 9.87595 0.792538 10.2204 0.957398 10.544C1.21306 11.0457 1.62101 11.4537 2.12277 11.7094C2.44633 11.8742 2.7908 11.9399 3.16553 11.9705C3.52632 12 3.96923 12 4.50587 12H11.4943C12.0309 12 12.4738 12 12.8346 11.9705C13.2094 11.9399 13.5538 11.8742 13.8774 11.7094C14.3792 11.4537 14.7871 11.0457 15.0428 10.544C15.2076 10.2204 15.2733 9.87595 15.304 9.50122C15.3334 9.14042 15.3334 8.69752 15.3334 8.16088V3.83912C15.3334 3.72001 15.3334 3.66045 15.3225 3.61886C15.2732 3.43084 15.0688 3.32374 14.8861 3.39021C14.8457 3.40491 14.7961 3.43924 14.6969 3.50789L9.53552 7.08129C9.16956 7.33544 8.84824 7.55859 8.48321 7.64707C8.16393 7.72446 7.8305 7.72201 7.51239 7.63993C7.1487 7.54609 6.8307 7.31824 6.46851 7.05874L1.42243 3.45429Z" fill="#FAFAFF"/>
<path d="M14.7553 1.84581C14.8784 1.76061 14.9399 1.71801 14.9777 1.64949C15.007 1.59629 15.0238 1.51203 15.0171 1.45163C15.0084 1.37386 14.9754 1.32251 14.9093 1.21982C14.656 0.826428 14.2916 0.501704 13.8774 0.29065C13.5538 0.12579 13.2094 0.0600801 12.8346 0.0294633C12.4738 -1.47695e-05 12.0309 -7.96811e-06 11.4943 2.74431e-07H4.50588C3.96924 -7.96811e-06 3.52633 -1.4772e-05 3.16553 0.0294633C2.7908 0.0600801 2.44633 0.12579 2.12277 0.29065C1.75009 0.480544 1.42795 0.755068 1.18299 1.0889C1.10593 1.19393 1.06739 1.24644 1.0547 1.32614C1.04477 1.38846 1.05863 1.47505 1.08752 1.53116C1.12446 1.60291 1.18854 1.64868 1.3167 1.74022L7.16677 5.91884C7.65158 6.26514 7.75446 6.32539 7.84551 6.34888C7.95154 6.37624 8.06269 6.37706 8.16911 6.35126C8.26049 6.32911 8.36425 6.27038 8.8541 5.93125L14.7553 1.84581Z" fill="#FAFAFF"/>
</svg>
