<svg width="17" height="18" viewBox="0 0 17 18" fill="none" xmlns="http://www.w3.org/2000/svg">
<path fill-rule="evenodd" clip-rule="evenodd" d="M8.6665 0.75C4.11015 0.75 0.416504 4.44365 0.416504 9C0.416504 13.5563 4.11015 17.25 8.6665 17.25C13.2229 17.25 16.9165 13.5563 16.9165 9C16.9165 4.44365 13.2229 0.75 8.6665 0.75ZM7.84648 6.20342C8.15188 6.02393 8.51095 5.95832 8.86009 6.01821C9.20923 6.0781 9.52591 6.25962 9.75404 6.53062C9.98217 6.80162 10.107 7.14462 10.1065 7.49885L10.1065 7.49997C10.1065 7.85182 9.83267 8.21863 9.31547 8.56343C9.0797 8.72062 8.83858 8.84171 8.65346 8.92399C8.56196 8.96465 8.48676 8.99468 8.43618 9.01395C8.41374 9.0225 8.3912 9.03077 8.36854 9.03872C7.97609 9.17001 7.76409 9.59445 7.89499 9.98714C8.02597 10.3801 8.45071 10.5925 8.84367 10.4615L8.97018 10.4157C9.04265 10.3881 9.14323 10.3478 9.26267 10.2947C9.49941 10.1895 9.8208 10.0293 10.1475 9.81151C10.7552 9.40639 11.6062 8.64842 11.6065 7.50066C11.6075 6.79233 11.3577 6.10651 10.9016 5.56462C10.4453 5.02261 9.81196 4.65957 9.11367 4.5398C8.41539 4.42003 7.69726 4.55125 7.08645 4.91022C6.47565 5.2692 6.0116 5.83276 5.7765 6.50109C5.63904 6.89183 5.84438 7.32002 6.23512 7.45747C6.62586 7.59493 7.05405 7.3896 7.1915 6.99885C7.30905 6.66469 7.54108 6.38291 7.84648 6.20342ZM8.6665 12C8.25229 12 7.9165 12.3358 7.9165 12.75C7.9165 13.1642 8.25229 13.5 8.6665 13.5H8.674C9.08821 13.5 9.424 13.1642 9.424 12.75C9.424 12.3358 9.08821 12 8.674 12H8.6665Z" fill="#FF7F3E"/>
</svg>
