<svg width="17" height="18" viewBox="0 0 17 18" fill="none" xmlns="http://www.w3.org/2000/svg">
<path fill-rule="evenodd" clip-rule="evenodd" d="M0.416504 9C0.416504 4.44365 4.11015 0.75 8.6665 0.75C13.2229 0.75 16.9165 4.44365 16.9165 9C16.9165 13.5563 13.2229 17.25 8.6665 17.25C4.11015 17.25 0.416504 13.5563 0.416504 9ZM9.4165 4.5C9.4165 4.08579 9.08072 3.75 8.6665 3.75C8.25229 3.75 7.9165 4.08579 7.9165 4.5V9C7.9165 9.28408 8.07701 9.54378 8.33109 9.67082L11.3311 11.1708C11.7016 11.3561 12.1521 11.2059 12.3373 10.8354C12.5226 10.4649 12.3724 10.0144 12.0019 9.82918L9.4165 8.53647V4.5Z" fill="#FF7F3E"/>
</svg>
