<svg width="17" height="18" viewBox="0 0 17 18" fill="none" xmlns="http://www.w3.org/2000/svg">
<path d="M8.33325 0.75C8.74747 0.75 9.08325 1.08579 9.08325 1.5V2.25H13.4622C13.8575 2.24999 14.1986 2.24998 14.4795 2.27293C14.776 2.29715 15.0709 2.35064 15.3547 2.49524C15.7781 2.71095 16.1223 3.05516 16.338 3.47852C16.4826 3.76231 16.5361 4.05722 16.5603 4.35373C16.5833 4.63466 16.5833 4.97572 16.5833 5.37108V10.3789C16.5833 10.7743 16.5833 11.1153 16.5603 11.3963C16.5361 11.6928 16.4826 11.9877 16.338 12.2715C16.1223 12.6948 15.7781 13.0391 15.3547 13.2548C15.0709 13.3994 14.776 13.4528 14.4795 13.4771C14.1986 13.5 13.8576 13.5 13.4622 13.5H12.3939L14.8636 15.9697C15.1565 16.2626 15.1565 16.7374 14.8636 17.0303C14.5707 17.3232 14.0958 17.3232 13.8029 17.0303L10.2726 13.5H9.08325V16.5C9.08325 16.9142 8.74747 17.25 8.33325 17.25C7.91904 17.25 7.58325 16.9142 7.58325 16.5V13.5H6.39391L2.86358 17.0303C2.57069 17.3232 2.09582 17.3232 1.80292 17.0303C1.51003 16.7374 1.51003 16.2626 1.80292 15.9697L4.27259 13.5H3.20436C2.80903 13.5 2.46789 13.5 2.18698 13.4771C1.89047 13.4528 1.59556 13.3994 1.31178 13.2548C0.888411 13.0391 0.544204 12.6948 0.328489 12.2715C0.183894 11.9877 0.130407 11.6928 0.106181 11.3963C0.0832288 11.1154 0.0832398 10.7743 0.0832526 10.3789V5.37109C0.0832398 4.97575 0.0832288 4.63465 0.106181 4.35373C0.130407 4.05722 0.183894 3.76231 0.328489 3.47852C0.544204 3.05516 0.888411 2.71095 1.31178 2.49524C1.59556 2.35064 1.89047 2.29715 2.18698 2.27293C2.46791 2.24998 2.80898 2.24999 3.20435 2.25H7.58325V1.5C7.58325 1.08579 7.91904 0.75 8.33325 0.75Z" fill="#FF7F3E"/>
</svg>
