<svg width="14" height="12" viewBox="0 0 14 12" fill="none" xmlns="http://www.w3.org/2000/svg">
<path d="M12.0897 3.38906C12.0975 3.5019 12.0975 3.61474 12.0975 3.72863C12.0975 7.19864 9.45584 11.2006 4.62548 11.2006V11.1985C3.19858 11.2006 1.80132 10.7919 0.600098 10.0212C0.807581 10.0462 1.0161 10.0587 1.22515 10.0592C2.40765 10.0602 3.55634 9.66348 4.48664 8.93287C3.3629 8.91155 2.37749 8.17886 2.03324 7.1092C2.42689 7.18512 2.83249 7.16952 3.21886 7.06396C1.99372 6.81643 1.11231 5.74002 1.11231 4.48992C1.11231 4.47848 1.11231 4.46756 1.11231 4.45664C1.47735 4.65996 1.88608 4.7728 2.30416 4.78528C1.15027 4.01411 0.794581 2.47905 1.49139 1.27887C2.82469 2.91949 4.79188 3.91687 6.90364 4.02243C6.69199 3.11034 6.98112 2.15456 7.66337 1.51339C8.72106 0.519137 10.3846 0.570098 11.3788 1.62727C11.967 1.51131 12.5306 1.29551 13.0465 0.989744C12.8504 1.59763 12.4402 2.114 11.8921 2.44213C12.4126 2.38077 12.9212 2.2414 13.4001 2.02872C13.0475 2.55705 12.6034 3.01726 12.0897 3.38906Z" fill="#FAFAFF"/>
</svg>
