<svg width="16" height="16" viewBox="0 0 16 16" fill="none" xmlns="http://www.w3.org/2000/svg">
<path fill-rule="evenodd" clip-rule="evenodd" d="M12.7122 0.500001H3.95435C3.559 0.499988 3.21791 0.499977 2.93698 0.522929C2.64047 0.547155 2.34556 0.600642 2.06178 0.745237C1.63841 0.960952 1.2942 1.30516 1.07849 1.72852C0.933894 2.01231 0.880407 2.30722 0.856181 2.60373C0.833229 2.88465 0.83324 3.22572 0.833253 3.62106V12.3789C0.83324 12.7743 0.833229 13.1154 0.856181 13.3963C0.880407 13.6928 0.933894 13.9877 1.07849 14.2715C1.2942 14.6948 1.63841 15.0391 2.06178 15.2548C2.34556 15.3994 2.64047 15.4528 2.93698 15.4771C3.21791 15.5 3.55897 15.5 3.95433 15.5H12.7122C13.1075 15.5 13.4486 15.5 13.7295 15.4771C14.026 15.4528 14.3209 15.3994 14.6047 15.2548C15.0281 15.0391 15.3723 14.6948 15.588 14.2715C15.7326 13.9877 15.7861 13.6928 15.8103 13.3963C15.8333 13.1153 15.8333 12.7743 15.8333 12.3789V3.62108C15.8333 3.22572 15.8333 2.88466 15.8103 2.60373C15.7861 2.30722 15.7326 2.01231 15.588 1.72852C15.3723 1.30516 15.0281 0.960952 14.6047 0.745237C14.3209 0.600642 14.026 0.547155 13.7295 0.522929C13.4486 0.499977 13.1075 0.499988 12.7122 0.500001ZM12.0833 4.25C12.0833 3.83579 11.7475 3.5 11.3333 3.5C10.919 3.5 10.5833 3.83579 10.5833 4.25V11.75C10.5833 12.1642 10.919 12.5 11.3333 12.5C11.7475 12.5 12.0833 12.1642 12.0833 11.75V4.25ZM8.33325 6.5C8.74747 6.5 9.08325 6.83579 9.08325 7.25V11.75C9.08325 12.1642 8.74747 12.5 8.33325 12.5C7.91904 12.5 7.58325 12.1642 7.58325 11.75V7.25C7.58325 6.83579 7.91904 6.5 8.33325 6.5ZM5.33325 9.5C5.74747 9.5 6.08325 9.83579 6.08325 10.25V11.75C6.08325 12.1642 5.74747 12.5 5.33325 12.5C4.91904 12.5 4.58325 12.1642 4.58325 11.75V10.25C4.58325 9.83579 4.91904 9.5 5.33325 9.5Z" fill="#FF7F3E"/>
</svg>
