<svg width="1194" height="345" viewBox="0 0 1194 345" fill="none" xmlns="http://www.w3.org/2000/svg">
<path d="M3.56303 286.349C5.31546 294.985 10.9269 302.723 20.2003 309.52C29.4777 316.32 42.3931 322.158 58.683 326.988C91.2618 336.648 137.229 342.246 194.288 343.522C308.398 346.073 466.754 331.337 650.815 297.342C834.877 263.347 973.971 222.165 1065.25 180.701C1110.9 159.968 1144.56 139.177 1165.91 119.199C1187.27 99.2097 1196.22 80.1307 1192.7 62.7951C1189.18 45.4633 1173.5 31.2831 1145.96 20.8494C1118.44 10.4219 1079.22 3.79057 1028.9 1.48007C928.261 -3.14058 783.378 9.52407 599.314 43.5191C415.254 77.5135 262.685 120.767 157.928 164.307C105.545 186.079 65.1437 207.912 38.7381 228.677C25.535 239.06 15.8527 249.16 9.91694 258.832C3.98353 268.5 1.81052 277.711 3.56303 286.349Z" stroke="url(#paint0_radial_0_1)" stroke-opacity="0.12"/>
<path d="M3.56303 286.349C5.31546 294.985 10.9269 302.723 20.2003 309.52C29.4777 316.32 42.3931 322.158 58.683 326.988C91.2618 336.648 137.229 342.246 194.288 343.522C308.398 346.073 466.754 331.337 650.815 297.342C834.877 263.347 973.971 222.165 1065.25 180.701C1110.9 159.968 1144.56 139.177 1165.91 119.199C1187.27 99.2097 1196.22 80.1307 1192.7 62.7951C1189.18 45.4633 1173.5 31.2831 1145.96 20.8494C1118.44 10.4219 1079.22 3.79057 1028.9 1.48007C928.261 -3.14058 783.378 9.52407 599.314 43.5191C415.254 77.5135 262.685 120.767 157.928 164.307C105.545 186.079 65.1437 207.912 38.7381 228.677C25.535 239.06 15.8527 249.16 9.91694 258.832C3.98353 268.5 1.81052 277.711 3.56303 286.349Z" stroke="url(#paint1_radial_0_1)" stroke-opacity="0.12"/>
<path d="M-3.05176e-05 291.346V291.346C2.11058 289.483 3.34518 286.814 3.39308 284V284V284C5.12694 286.14 7.73166 287.386 10.4857 287.393L10.7387 287.393V287.393C8.49675 289.154 7.23513 291.89 7.34563 294.739V294.739L7.18147 294.546C5.39309 292.451 2.75409 291.275 -3.05176e-05 291.346V291.346Z" fill="#FAFAFF"/>
<defs>
<radialGradient id="paint0_radial_0_1" cx="0" cy="0" r="1" gradientUnits="userSpaceOnUse" gradientTransform="translate(125.33 339.425) rotate(-43.8961) scale(331.523 1071.93)">
<stop stop-color="white"/>
<stop offset="1" stop-color="white" stop-opacity="0"/>
</radialGradient>
<radialGradient id="paint1_radial_0_1" cx="0" cy="0" r="1" gradientUnits="userSpaceOnUse" gradientTransform="translate(33.1926 321.279) rotate(-66.1941) scale(48.9738 228.08)">
<stop stop-color="white" stop-opacity="0.6"/>
<stop offset="1" stop-color="white" stop-opacity="0"/>
</radialGradient>
</defs>
</svg>
